# xmcd
#
# Track frame offsets:
#	180
#	12936
#	26952
#	35074
#	47902
#	58528
#	67318
#	79415
#	91732
#	104919
#	116844
#	129502
#	142248
#	154865
#	167627
#	179683
#
# Disc length: 2566 seconds
#
# Revision: 0
# Processed by: cddbd v1.5.2PL0 Copyright (c) Steve Scherf et al.
# Submitted via: dBpowerAMP V4.0
#
DISCID=f60a0410
DTITLE=Various Artist - Guns and Guitars
DYEAR=1900
DGENRE=Country
TTITLE0=Nelstone's Hawaiians - Mobile country blues
TTITLE1=Floyd County Ramblers - Aunt Dinah's quilting party
TTITLE2=W M Stepp and W Williams - Mud fence
TTITLE3=Roy Acuff - Great speckled bird
TTITLE4=W M Stepp - Silver strand
TTITLE5=Gene Autrey - Gaucho serenade
TTITLE6=Shelley Lee Alley - Low down blues
TTITLE7=The Delmore Brothers - Boogie woogie baby
TTITLE8=Tex Williams - I got Texas in my soul
TTITLE9=Merle Travis - No vacancy
TTITLE10=Ben Christian - Texas cowboy rag
TTITLE11=Ocie Stockard - Twin guitar polka
TTITLE12=Merle Travis - Sixteen tons
TTITLE13=Ocie Stockard - Cow town boogie
TTITLE14=Little Jimmy Dickens - A-sleeping at the foot of the bed
TTITLE15=Johnny Lee Wills
EXTD=
EXTT0=
EXTT1=
EXTT2=
EXTT3=
EXTT4=
EXTT5=
EXTT6=
EXTT7=
EXTT8=
EXTT9=
EXTT10=
EXTT11=
EXTT12=
EXTT13=
EXTT14=
EXTT15=
PLAYORDER=
